HIERARCHY
ROOT Hips
{
 OFFSET 0.000000 0.000000 0.000000
 CHANNELS 6 Xposition Yposition Zposition Yrotation Xrotation Zrotation
 JOINT Chest
 {
  OFFSET 0.000000 12.953391 -0.028419
  CHANNELS 3 Yrotation Xrotation Zrotation
  JOINT Chest2
  {
   OFFSET 0.000000 10.280254 0.051622
   CHANNELS 3 Yrotation Xrotation Zrotation
   JOINT Chest3
   {
    OFFSET 0.000000 9.287180 0.000000
    CHANNELS 3 Yrotation Xrotation Zrotation
    JOINT Chest4
    {
     OFFSET 0.000000 9.287180 0.000000
     CHANNELS 3 Yrotation Xrotation Zrotation
     JOINT Neck
     {
      OFFSET 0.000000 13.296264 0.000000
      CHANNELS 3 Yrotation Xrotation Zrotation
      JOINT Head
      {
       OFFSET 0.000000 8.959264 0.099003
       CHANNELS 3 Yrotation Xrotation Zrotation
       End Site
       {
        OFFSET 0.000000 17.121337 0.039303
       }
      }
     }
     JOINT RightCollar
     {
      OFFSET -3.193511 7.451388 0.000000
      CHANNELS 3 Yrotation Xrotation Zrotation
      JOINT RightShoulder
      {
       OFFSET -15.792092 0.000000 0.000000
       CHANNELS 3 Yrotation Xrotation Zrotation
       JOINT RightElbow
       {
        OFFSET -31.151839 0.000000 0.000000
        CHANNELS 3 Yrotation Xrotation Zrotation
        JOINT RightWrist
        {
         OFFSET -25.536298 0.000000 0.002321
         CHANNELS 3 Yrotation Xrotation Zrotation
         End Site
         {
          OFFSET -19.133213 0.000000 0.000000
         }
        }
       }
      }
     }
     JOINT LeftCollar
     {
      OFFSET 3.193511 7.451388 0.000000
      CHANNELS 3 Yrotation Xrotation Zrotation
      JOINT LeftShoulder
      {
       OFFSET 15.792092 0.000000 0.000000
       CHANNELS 3 Yrotation Xrotation Zrotation
       JOINT LeftElbow
       {
        OFFSET 31.151839 0.000000 0.000000
        CHANNELS 3 Yrotation Xrotation Zrotation
        JOINT LeftWrist
        {
         OFFSET 25.536298 0.000000 0.002321
         CHANNELS 3 Yrotation Xrotation Zrotation
         End Site
         {
          OFFSET 19.133213 0.000000 0.000000
         }
        }
       }
      }
     }
    }
   }
  }
 }
 JOINT RightHip
 {
  OFFSET -10.745749 0.139252 0.014209
  CHANNELS 3 Yrotation Xrotation Zrotation
  JOINT RightKnee
  {
   OFFSET 0.000000 -43.743899 -0.006071
   CHANNELS 3 Yrotation Xrotation Zrotation
   JOINT RightAnkle
   {
    OFFSET 0.000000 -43.214199 0.089931
    CHANNELS 3 Yrotation Xrotation Zrotation
    JOINT RightToe
    {
     OFFSET 0.000000 -9.699830 19.151588
     CHANNELS 3 Yrotation Xrotation Zrotation
     End Site
     {
      OFFSET 0.000000 -1.292898 4.893873
     }
    }
   }
  }
 }
 JOINT LeftHip
 {
  OFFSET 10.745749 0.139252 0.014209
  CHANNELS 3 Yrotation Xrotation Zrotation
  JOINT LeftKnee
  {
   OFFSET 0.000000 -43.743899 -0.006071
   CHANNELS 3 Yrotation Xrotation Zrotation
   JOINT LeftAnkle
   {
    OFFSET 0.000000 -43.214199 0.089931
    CHANNELS 3 Yrotation Xrotation Zrotation
    JOINT LeftToe
    {
     OFFSET 0.000000 -9.699830 19.151588
     CHANNELS 3 Yrotation Xrotation Zrotation
     End Site
     {
      OFFSET 0.000000 -1.292898 4.893873
     }
    }
   }
  }
 }
}
MOTION
Frames: 9
Frame Time: 0.016667
-103.871383 94.073722 121.560388 -94.242495 -11.059319 -6.308871 3.522890 7.926282 -3.709867 1.625455 3.494515 -1.705080 1.625505 3.494473 -1.705104 1.228551 2.616339 -1.287767 2.453251 19.330554 2.339445 3.747923 -0.307214 3.503767 -0.644757 -26.665387 -6.146315 34.725798 -34.336218 1.562940 63.038384 -10.148253 -8.148195 13.109273 -8.111970 -4.359444 -17.416572 -36.514571 28.475000 -50.615000 -29.297654 -1.492345 -64.353663 -13.666521 8.232065 -11.399305 -19.913933 20.937032 -11.274660 -8.211041 -1.287152 1.908292 34.110665 -2.640552 -7.020206 -8.282168 8.124326 0.013596 0.780539 0.012407 7.739501 -2.526056 17.912626 -4.676682 55.588426 7.270659 6.816378 -2.255023 2.744587 -1.575324 -16.633120 -24.025229
-104.807936 94.746742 120.925420 -95.146828 -11.004882 -6.025928 3.620756 8.007563 -3.634543 1.668022 3.530513 -1.673895 1.668022 3.530513 -1.673895 1.260312 2.643365 -1.264682 2.538193 19.477200 2.222192 3.941441 -0.034118 3.264715 -0.911618 -26.641677 -6.187390 34.961330 -34.047943 1.886843 63.159228 -10.193180 -8.452645 13.054835 -8.023853 -4.207783 -17.851125 -36.664311 28.880482 -50.115881 -29.057100 -1.854703 -63.843952 -14.384875 8.105876 -11.200480 -20.168876 21.047981 -11.349538 -7.375104 -1.170391 2.003151 32.975726 -2.836702 -6.222113 -7.176660 8.149138 0.000000 0.000000 0.000000 8.426607 -4.154218 16.382684 -3.679969 56.826631 7.070113 5.931742 -2.102675 1.983826 -1.046714 -17.374648 -21.015910
-105.707407 95.555853 120.442735 -95.976793 -10.797315 -5.790450 3.694169 7.917694 -3.518529 1.697865 3.490932 -1.623057 1.697812 3.490939 -1.623023 1.282226 2.613748 -1.226583 2.626726 19.720875 2.108794 4.140737 0.419519 3.033598 -0.487582 -27.281648 -6.226082 34.638540 -33.113906 2.413859 62.785872 -10.131912 -8.231558 12.878737 -7.950929 -4.208730 -17.345016 -36.939036 29.321479 -50.191940 -29.292068 -2.708333 -63.126339 -15.039118 7.703909 -11.112608 -20.491802 21.170995 -11.541464 -6.606623 -1.171012 2.524634 31.497560 -2.733164 -5.670750 -5.420373 8.317940 -0.025327 -2.930770 0.019423 9.451722 -5.879665 14.993324 -1.991594 56.974276 7.018498 5.118647 -2.177069 1.445085 -0.411128 -18.122549 -18.234989
-106.566553 96.485308 120.091330 -96.723722 -10.496640 -5.583284 3.751733 7.737374 -3.378892 1.719880 3.411463 -1.560834 1.719837 3.411458 -1.560804 1.298203 2.554243 -1.179856 2.710073 20.014870 2.012651 4.324263 0.966781 2.838080 0.243863 -28.258523 -6.306962 34.063906 -31.811443 3.108607 62.081563 -10.038036 -7.749977 12.617473 -7.854883 -4.288314 -16.445720 -37.286087 29.808419 -50.538143 -29.674699 -3.783996 -62.211473 -15.679390 7.099605 -11.061673 -20.859212 21.281542 -11.811047 -5.829036 -1.296078 3.219578 29.655675 -2.477873 -5.190878 -3.096219 8.605614 -0.027064 -7.032604 0.031736 10.812679 -7.650455 13.676072 0.034875 56.196671 6.992031 4.267249 -2.274356 0.785224 0.216359 -18.980256 -15.248163
-107.385836 97.392991 119.774634 -97.259414 -10.173280 -5.465461 3.743209 7.604458 -3.239624 1.713060 3.353582 -1.498016 1.713060 3.353582 -1.498016 1.292665 2.511030 -1.132611 2.763925 20.179818 1.956597 4.440011 1.274333 2.723639 0.809341 -29.013287 -6.405449 33.573619 -30.733695 3.685005 61.412198 -10.044850 -7.407344 12.355057 -7.668761 -4.318297 -15.992221 -37.610899 30.309573 -50.748850 -29.629062 -4.550422 -61.349447 -16.195539 6.732652 -10.996750 -21.074150 21.323572 -11.965027 -5.062584 -1.480750 3.493128 27.787264 -2.211645 -4.557475 -0.645488 8.904649 0.011669 -10.539012 -0.126518 12.192323 -9.355884 12.442536 1.656001 54.949510 6.859540 2.951393 -2.280610 -0.251254 0.410897 -18.982069 -11.592698
-108.158821 98.269689 119.471759 -97.473728 -9.861081 -5.468948 3.625135 7.586474 -3.106143 1.658446 3.347481 -1.436780 1.658468 3.347501 -1.436794 1.251396 2.506783 -1.086402 2.778057 20.123760 1.968021 4.461867 1.170332 2.739470 0.967286 -29.305580 -6.544933 33.275711 -30.161981 4.101879 60.879233 -10.206698 -7.323886 12.100374 -7.283066 -4.203821 -16.471043 -37.928680 30.866301 -50.574114 -28.740602 -4.828488 -60.588986 -16.478337 6.806399 -10.884168 -20.992581 21.251762 -11.868704 -4.294468 -1.739518 3.008808 25.961171 -1.930179 -3.652687 1.959654 9.200992 0.080641 -12.766808 -0.595522 13.529405 -10.963299 11.294877 2.596057 53.335553 6.520263 0.982810 -2.154205 -1.938917 0.268632 -17.493848 -6.379122
-108.891943 99.124615 119.203591 -97.479149 -9.528833 -5.557518 3.441010 7.614872 -2.973624 1.574773 3.362318 -1.375183 1.574789 3.362336 -1.375192 1.188344 2.518259 -1.039785 2.768731 19.938220 2.023122 4.427277 0.824722 2.838608 0.944238 -29.384670 -6.694832 33.045734 -29.819409 4.428729 60.383100 -10.483547 -7.368276 11.845186 -6.799738 -4.050769 -17.409221 -38.225002 31.459934 -50.254545 -27.404414 -4.827769 -59.882666 -16.645742 7.113722 -10.748411 -20.756212 21.115312 -11.659200 -3.534581 -2.044262 2.115988 24.119360 -1.590418 -2.592834 4.693234 9.526887 0.163182 -14.399268 -1.246225 14.874864 -12.499634 10.215284 3.066348 51.287956 5.995294 -1.358138 -1.927564 -4.103705 0.143960 -14.964148 -0.638703
-109.604969 99.843292 118.936224 -97.482236 -9.150149 -5.688961 3.270278 7.623046 -2.852430 1.497089 3.367885 -1.318677 1.497089 3.367885 -1.318677 1.129774 2.522716 -0.996989 2.752832 19.718572 2.068099 4.383336 0.415926 2.920664 0.956028 -29.430851 -6.740030 32.846494 -29.470235 4.575383 59.988707 -10.880788 -7.555784 11.647782 -6.467310 -4.021230 -18.199195 -38.372254 31.956950 -50.111843 -26.243359 -4.612908 -59.351316 -16.922217 7.489209 -10.621013 -20.596856 21.001907 -11.544806 -2.836559 -2.269214 1.272658 22.406566 -1.258101 -1.509413 7.034752 9.832411 0.246877 -15.719292 -1.848963 16.069909 -13.964511 9.218030 3.162298 49.019083 5.446995 -3.808241 -1.638725 -6.323020 0.082219 -11.866874 3.181781
-110.299889 100.402011 118.654233 -97.513088 -8.695242 -5.860127 3.130372 7.583623 -2.743122 1.433047 3.351960 -1.267665 1.433044 3.351957 -1.267664 1.081439 2.511023 -0.958349 2.725303 19.477638 2.082699 4.327165 -0.031617 2.951144 1.115262 -29.492517 -6.594862 32.648171 -28.948216 4.413781 59.731049 -11.494637 -7.954694 11.536440 -6.422985 -4.194374 -18.589359 -38.281107 32.243158 -50.306448 -25.461640 -4.089707 -59.039319 -17.435399 7.907061 -10.508926 -20.624275 20.939009 -11.567213 -2.224135 -2.380406 0.549846 20.816820 -0.961386 -0.378144 8.932945 10.108163 0.333839 -16.882243 -2.350155 17.129709 -15.372314 8.314510 2.924204 46.496258 5.030126 -6.750665 -1.400725 -8.742370 -0.035219 -7.753529 3.482515
